<!DOCTYPE svg PUBLIC "-//W3C//DTD SVG 1.1//EN" "http://www.w3.org/Graphics/SVG/1.1/DTD/svg11.dtd">
<!-- Uploaded to: SVG Repo, www.svgrepo.com, Transformed by: SVG Repo Mixer Tools -->
<svg fill="#000000" version="1.1" id="Capa_1" xmlns="http://www.w3.org/2000/svg" xmlns:xlink="http://www.w3.org/1999/xlink" width="800px" height="800px" viewBox="0 0 902 902" xml:space="preserve" stroke="#000000">
<g id="SVGRepo_bgCarrier" stroke-width="0"/>
<g id="SVGRepo_tracerCarrier" stroke-linecap="round" stroke-linejoin="round"/>
<g id="SVGRepo_iconCarrier"> <g> <g> <path d="M10,840.773c-5.523,0-10,4.477-10,10v26.169c0,5.523,4.477,10,10,10h882c5.523,0,10-4.477,10-10v-26.169 c0-5.523-4.477-10-10-10h-50V486.857c0-5.523,4.477-10,10-10h24c5.523,0,10-4.477,10-10v-32.959c0-4.061-2.455-7.718-6.213-9.255 l-192.011-78.57c-3.759-1.538-6.214-5.195-6.214-9.255V165.563c0-5.523,4.478-10,10-10h5.946c5.523,0,10-4.477,10-10v-23.48 c0-4.109-2.514-7.8-6.337-9.305L454.663,15.752c-2.354-0.926-4.971-0.926-7.325,0l-246.509,97.026 c-3.824,1.505-6.337,5.196-6.337,9.305v23.48c0,5.523,4.477,10,10,10h5.945c5.523,0,10,4.477,10,10v171.255 c0,4.06-2.455,7.717-6.213,9.255l-192.011,78.57c-3.758,1.538-6.213,5.195-6.213,9.255v32.959c0,5.523,4.477,10,10,10h24 c5.523,0,10,4.477,10,10v353.916H10z M259.667,757.857c0,5.523-4.477,10-10,10h-82.333c-5.523,0-10-4.477-10-10v-86 c0-5.523,4.477-10,10-10h82.333c5.523,0,10,4.477,10,10V757.857z M582,840.773H320v-119.41c0-5.522,4.477-10,10-10h242 c5.523,0,10,4.478,10,10V840.773z M744.667,757.857c0,5.523-4.477,10-10,10h-82.333c-5.523,0-10-4.477-10-10v-86 c0-5.523,4.477-10,10-10h82.333c5.523,0,10,4.477,10,10V757.857z M781.5,511.857c5.523,0,10,4.477,10,10v86 c0,5.523-4.477,10-10,10h-176c-5.523,0-10-4.477-10-10v-86c0-5.523,4.477-10,10-10H781.5z M506.497,196.046 c0-5.523,4.477-10,10-10h81.995c5.522,0,10,4.477,10,10v36.997c0,5.523-4.478,10-10,10h-81.995c-5.523,0-10-4.477-10-10V196.046z M539,511.857c5.523,0,10,4.477,10,10v86c0,5.523-4.477,10-10,10H363c-5.523,0-10-4.477-10-10v-86c0-5.523,4.477-10,10-10H539z M293.508,196.046c0-5.523,4.478-10,10-10h81.995c5.523,0,10,4.477,10,10v36.997c0,5.523-4.477,10-10,10h-81.995 c-5.522,0-10-4.477-10-10V196.046z M110.5,521.857c0-5.523,4.477-10,10-10h176c5.523,0,10,4.477,10,10v86c0,5.523-4.477,10-10,10 h-176c-5.523,0-10-4.477-10-10V521.857z"/> </g> </g> </g>
</svg>