<svg xmlns="http://www.w3.org/2000/svg" id="Building" enable-background="new 0 0 70 70" viewBox="0 0 70 70">
  <path d="M64.1323242,59.0620117c-0.5522461,0-1-0.4477539-1-1V27.7851562L48.690918,33.9418945c-0.5078125,0.2167969-1.0952148-0.0195312-1.3120117-0.527832c-0.2167969-0.5078125,0.0195312-1.0952148,0.527832-1.3120117l15.8334961-6.75c0.3081055-0.1323242,0.6625977-0.0991211,0.9433594,0.0854492c0.2802734,0.1850586,0.4487305,0.4985352,0.4487305,0.8344727v31.7900391C65.1323242,58.6142578,64.6845703,59.0620117,64.1323242,59.0620117z" fill="#ffffff" class="color000000 svgShape"></path>
  <path d="M67,67.7280273H3c-0.5522461,0-1-0.4477539-1-1v-8.6635742c0-0.5522461,0.4477539-1,1-1h64c0.5522461,0,1,0.4477539,1,1v8.6635742C68,67.2802734,67.5522461,67.7280273,67,67.7280273z M4,65.7280273h62v-6.6635742H4V65.7280273z" fill="#ffffff" class="color000000 svgShape"></path>
  <path d="M48.2988281,59.0644531h-41.25c-0.5522461,0-1-0.4477539-1-1V11.1469727c0-0.5522461,0.4477539-1,1-1h41.25c0.5522461,0,1,0.4477539,1,1v46.9174805C49.2988281,58.6166992,48.8510742,59.0644531,48.2988281,59.0644531z M8.0488281,57.0644531h39.25V12.1469727h-39.25V57.0644531z" fill="#ffffff" class="color000000 svgShape"></path>
  <path d="M53.1738281 12.1469727H3c-.5522461 0-1-.4477539-1-1v-7.875c0-.5522461.4477539-1 1-1h50.1738281c.5522461 0 1 .4477539 1 1v7.875C54.1738281 11.6992188 53.7260742 12.1469727 53.1738281 12.1469727zM4 10.1469727h48.1738281v-5.875H4V10.1469727zM37.2988281 29.8969727h-19.25c-.5522461 0-1-.4477539-1-1v-11.125c0-.5522461.4477539-1 1-1h19.25c.5522461 0 1 .4477539 1 1v11.125C38.2988281 29.4492188 37.8510742 29.8969727 37.2988281 29.8969727zM19.0488281 27.8969727h17.25v-9.125h-17.25V27.8969727z" fill="#ffffff" class="color000000 svgShape"></path>
  <path d="M37.2978516,29.8969727c-0.1699219,0-0.3417969-0.0429688-0.4995117-0.1342773l-19.25-11.125c-0.4780273-0.2763672-0.6416016-0.8876953-0.3652344-1.3662109c0.2758789-0.4780273,0.887207-0.6430664,1.3662109-0.3652344l19.25,11.125c0.4780273,0.2763672,0.6416016,0.8876953,0.3652344,1.3662109C37.9794922,29.7177734,37.6435547,29.8969727,37.2978516,29.8969727z" fill="#ffffff" class="color000000 svgShape"></path>
  <path d="M18.0498047,29.8969727c-0.3457031,0-0.6816406-0.1791992-0.8666992-0.4995117c-0.2763672-0.4785156-0.112793-1.0898438,0.3652344-1.3662109l19.25-11.125c0.4775391-0.277832,1.0898438-0.112793,1.3662109,0.3652344c0.2763672,0.4785156,0.112793,1.0898438-0.3652344,1.3662109l-19.25,11.125C18.3916016,29.8540039,18.2197266,29.8969727,18.0498047,29.8969727z" fill="#ffffff" class="color000000 svgShape"></path>
  <g fill="#ffffff" class="color000000 svgShape">
    <path d="M35.2329102,59.0620117H20.1147461c-0.5522461,0-1-0.4477539-1-1V43.9980469c0-4.7197266,3.8393555-8.559082,8.559082-8.559082s8.559082,3.8393555,8.559082,8.559082v14.0639648C36.2329102,58.6142578,35.7851562,59.0620117,35.2329102,59.0620117z M21.1147461,57.0620117h13.1181641V43.9980469c0-3.6166992-2.9423828-6.559082-6.559082-6.559082s-6.559082,2.9423828-6.559082,6.559082V57.0620117z" fill="#ffffff" class="color000000 svgShape"></path>
  </g>
  <g fill="#ffffff" class="color000000 svgShape">
    <path d="M31.5488281,49.8969727c-0.5522461,0-1-0.4477539-1-1v-2.125c0-0.5522461,0.4477539-1,1-1s1,0.4477539,1,1v2.125C32.5488281,49.4492188,32.1010742,49.8969727,31.5488281,49.8969727z" fill="#ffffff" class="color000000 svgShape"></path>
  </g>
  <g fill="#ffffff" class="color000000 svgShape">
    <path d="M58.9345703 43.3583984h-5.4375c-.5522461 0-1-.4477539-1-1v-4.6489258c0-.5522461.4477539-1 1-1h5.4375c.5522461 0 1 .4477539 1 1v4.6489258C59.9345703 42.9106445 59.4868164 43.3583984 58.9345703 43.3583984zM54.4970703 41.3583984h3.4375v-2.6489258h-3.4375V41.3583984zM58.9345703 53.2294922h-5.4375c-.5522461 0-1-.4477539-1-1v-4.6484375c0-.5522461.4477539-1 1-1h5.4375c.5522461 0 1 .4477539 1 1v4.6484375C59.9345703 52.7817383 59.4868164 53.2294922 58.9345703 53.2294922zM54.4970703 51.2294922h3.4375v-2.6484375h-3.4375V51.2294922z" fill="#ffffff" class="color000000 svgShape"></path>
  </g>
</svg>
